# xmcd
#
# Track frame offsets: 
#        150
#        21795
#        42017
#        67295
#        91810
#        116620
#        133762
#        152755
#        172485
#        189452
#
# Disc length: 2809 seconds
#
# Revision: 0
# Processed by: cddbd v1.5.1PL2 Copyright (c) Steve Scherf et al.
# Submitted via: ExactAudioCopy v0.95b3
#
DISCID=8b0af70a
DTITLE=Jim Weider - Percolator
DYEAR=2005
DGENRE=Blues
TTITLE0=The Maze
TTITLE1=Percolator
TTITLE2=New Day
TTITLE3=Troll
TTITLE4=Flight
TTITLE5=Smooth Move
TTITLE6=No Goodbyes
TTITLE7=Rain Daze
TTITLE8=Caveman
TTITLE9=Prayer
EXTD=
EXTT0=
EXTT1=
EXTT2=
EXTT3=
EXTT4=
EXTT5=
EXTT6=
EXTT7=
EXTT8=
EXTT9=
PLAYORDER=
